<svg id="Capa_1" enable-background="new 0 0 512 512" height="512" viewBox="0 0 512 512" width="512" xmlns="http://www.w3.org/2000/svg"><g><g><path d="m256 180c-3.838 0-7.676-1.465-10.605-4.395l-25.606-25.605h-83.789c-41.367 0-75-33.647-75-75s33.633-75 75-75h240c41.367 0 75 33.647 75 75s-33.633 75-75 75h-83.789l-25.605 25.605c-2.93 2.93-6.768 4.395-10.606 4.395z" fill="#e6f3ff"/></g><path d="m376 0h-120v180c3.838 0 7.676-1.465 10.605-4.395l25.606-25.605h83.789c41.367 0 75-33.647 75-75s-33.633-75-75-75z" fill="#ccdcff"/><g><path d="m406 330h-240c-8.401 0-15 6.599-15 15 0 8.399 6.599 15 15 15 24.901 0 45 20.099 45 45 0 8.399 6.599 15 15 15h45v77c0 8.399 6.599 15 15 15h135l15-62 15 62h15c8.401 0 15-6.601 15-15v-92c0-41.4-33.6-75-75-75z" fill="#ffa6f0"/></g><path d="m361 512h60l15-62 15 62h15c8.401 0 15-6.601 15-15v-92c0-41.4-33.6-75-75-75h-45z" fill="#ff80d4"/><g id="Talk_1_"><g><path d="m151 330c-41.367 0-75-33.647-75-75s33.633-75 75-75 75 33.647 75 75-33.633 75-75 75z" fill="#ffd9b3"/></g><path d="m226 255c0-41.353-33.633-75-75-75v150c41.367 0 75-33.647 75-75z" fill="#fb9"/><g><path d="m361 330c-41.367 0-75-33.647-75-75s33.633-75 75-75 75 33.647 75 75-33.633 75-75 75z" fill="#ffd9b3"/></g><path d="m436 255c0-41.353-33.633-75-75-75v150c41.367 0 75-33.647 75-75z" fill="#fb9"/><g><path d="m166 330h-60c-41.4 0-75 33.6-75 75v92c0 8.399 6.599 15 15 15h15l15-92 15 92h135c8.401 0 15-6.601 15-15v-92c0-41.4-33.6-75-75-75z" fill="#a9f"/></g><path d="m241 497v-92c0-41.4-33.6-75-75-75h-15v182h75c8.401 0 15-6.601 15-15z" fill="#8080ff"/><g><path d="m451 405v107h-30v-107c0-8.401 6.599-15 15-15s15 6.599 15 15z" fill="#f255a4"/></g><g><circle cx="166" cy="75" fill="#733957" r="15"/></g><g><circle cx="256" cy="75" fill="#733957" r="15"/></g><g><circle cx="346" cy="75" fill="#4d263a" r="15"/></g></g><g><path d="m91 405v107h-30v-107c0-8.401 6.599-15 15-15s15 6.599 15 15z" fill="#8080ff"/></g><path d="m271 75c0-8.286-6.716-15-15-15v30c8.284 0 15-6.716 15-15z" fill="#4d263a"/></g></svg>